<svg width="24" height="24" viewBox="0 0 24 24" fill="none" xmlns="http://www.w3.org/2000/svg">
<path fill-rule="evenodd" clip-rule="evenodd" d="M8.223 6.51607C8.61323 6.08578 8.87014 5.55146 8.96255 4.97797C9.05495 4.40448 8.97888 3.8165 8.74356 3.28542C8.50824 2.75433 8.1238 2.30299 7.63691 1.98618C7.15003 1.66937 6.58163 1.50073 6.00075 1.50073C5.41987 1.50073 4.85147 1.66937 4.36459 1.98618C3.8777 2.30299 3.49326 2.75433 3.25794 3.28542C3.02262 3.8165 2.94655 4.40448 3.03895 4.97797C3.13136 5.55146 3.38827 6.08578 3.7785 6.51607C3.6585 6.57907 3.5435 6.64707 3.4335 6.72007C2.748 7.17757 2.3085 7.77607 2.034 8.32957C1.70682 8.99628 1.52481 9.72482 1.5 10.4671V13.5001C1.5 13.8979 1.65804 14.2794 1.93934 14.5607C2.22064 14.842 2.60218 15.0001 3 15.0001H6.75C7.01258 14.4673 7.35898 13.9801 7.776 13.5571L7.7565 13.5001H3V10.5001C3 10.5001 3 7.50007 6 7.50007C7.5105 7.50007 8.2605 8.26057 8.6325 9.01507C8.97 8.63407 9.372 8.31007 9.822 8.06107C9.44357 7.40698 8.8897 6.87181 8.223 6.51607ZM6 6.00007C6.39782 6.00007 6.77936 5.84204 7.06066 5.56073C7.34196 5.27943 7.5 4.8979 7.5 4.50007C7.5 4.10225 7.34196 3.72072 7.06066 3.43941C6.77936 3.15811 6.39782 3.00007 6 3.00007C5.60218 3.00007 5.22064 3.15811 4.93934 3.43941C4.65804 3.72072 4.5 4.10225 4.5 4.50007C4.5 4.8979 4.65804 5.27943 4.93934 5.56073C5.22064 5.84204 5.60218 6.00007 6 6.00007ZM21 15.0001H17.25C16.9874 14.4673 16.641 13.9801 16.224 13.5571L16.2435 13.5001H21V10.5001C21 10.5001 21 7.50007 18 7.50007C16.4895 7.50007 15.7395 8.26057 15.3675 9.01507C15.0282 8.63172 14.6259 8.30909 14.178 8.06107C14.5564 7.40698 15.1103 6.87181 15.777 6.51607C15.3868 6.08578 15.1299 5.55146 15.0375 4.97797C14.945 4.40448 15.0211 3.8165 15.2564 3.28542C15.4918 2.75433 15.8762 2.30299 16.3631 1.98618C16.85 1.66937 17.4184 1.50073 17.9993 1.50073C18.5801 1.50073 19.1485 1.66937 19.6354 1.98618C20.1223 2.30299 20.5067 2.75433 20.7421 3.28542C20.9774 3.8165 21.0535 4.40448 20.961 4.97797C20.8686 5.55146 20.6117 6.08578 20.2215 6.51607C20.3415 6.57907 20.4565 6.64707 20.5665 6.72007C21.252 7.17757 21.6915 7.77607 21.966 8.32957C22.2884 8.97993 22.4703 9.69082 22.5 10.4161V13.5001C22.5 13.8979 22.342 14.2794 22.0607 14.5607C21.7794 14.842 21.3978 15.0001 21 15.0001ZM18 6.00007C18.3978 6.00007 18.7794 5.84204 19.0607 5.56073C19.342 5.27943 19.5 4.8979 19.5 4.50007C19.5 4.10225 19.342 3.72072 19.0607 3.43941C18.7794 3.15811 18.3978 3.00007 18 3.00007C17.6022 3.00007 17.2206 3.15811 16.9393 3.43941C16.658 3.72072 16.5 4.10225 16.5 4.50007C16.5 4.8979 16.658 5.27943 16.9393 5.56073C17.2206 5.84204 17.6022 6.00007 18 6.00007Z" fill="#104AEA"/>
<path fill-rule="evenodd" clip-rule="evenodd" d="M15 12C15 12.7755 14.706 13.4835 14.223 14.016C14.9788 14.4253 15.5885 15.0596 15.9675 15.831C16.2959 16.4961 16.4775 17.2241 16.5 17.9655V21C16.5 21.3978 16.342 21.7794 16.0607 22.0607C15.7794 22.342 15.3978 22.5 15 22.5H9C8.60218 22.5 8.22064 22.342 7.93934 22.0607C7.65804 21.7794 7.5 21.3978 7.5 21V17.967C7.50072 17.8994 7.50372 17.8319 7.509 17.7645C7.55807 17.0918 7.73632 16.4348 8.034 15.8295C8.41261 15.0583 9.02175 14.424 9.777 14.0145C9.4499 13.6536 9.21561 13.2184 9.09439 12.7466C8.97316 12.2748 8.96864 11.7806 9.08122 11.3067C9.1938 10.8327 9.42009 10.3933 9.74053 10.0265C10.061 9.6596 10.4659 9.37627 10.9204 9.20098C11.3749 9.02569 11.8652 8.9637 12.349 9.02038C12.8329 9.07705 13.2956 9.25068 13.6973 9.52627C14.0989 9.80186 14.4274 10.1711 14.6544 10.6021C14.8814 11.0331 15 11.5129 15 12ZM9 18V21H15V18C15 18 15 15 12 15C9 15 9 18 9 18ZM13.5 12C13.5 12.3978 13.342 12.7794 13.0607 13.0607C12.7794 13.342 12.3978 13.5 12 13.5C11.6022 13.5 11.2206 13.342 10.9393 13.0607C10.658 12.7794 10.5 12.3978 10.5 12C10.5 11.6022 10.658 11.2207 10.9393 10.9394C11.2206 10.6581 11.6022 10.5 12 10.5C12.3978 10.5 12.7794 10.6581 13.0607 10.9394C13.342 11.2207 13.5 11.6022 13.5 12Z" fill="#104AEA"/>
</svg>
