<svg width="24" height="24" viewBox="0 0 24 24" fill="none" xmlns="http://www.w3.org/2000/svg">
<path d="M12.659 22H18C18.5304 22 19.0391 21.7893 19.4142 21.4142C19.7893 21.0391 20 20.5304 20 20V8.00001C20.0008 7.68312 19.9388 7.36921 19.8176 7.0764C19.6964 6.78359 19.5185 6.51768 19.294 6.29401L15.706 2.70601C15.4823 2.48153 15.2164 2.30357 14.9236 2.18239C14.6308 2.06122 14.3169 1.99923 14 2.00001H6C5.46957 2.00001 4.96086 2.21072 4.58579 2.58579C4.21071 2.96087 4 3.46957 4 4.00001V13.34" stroke="#058A53" stroke-width="2" stroke-linecap="round" stroke-linejoin="round"/>
<path d="M14 2V7C14 7.26522 14.1054 7.51957 14.2929 7.70711C14.4805 7.89464 14.7348 8 15 8H20M10.378 12.622C10.7762 12.2242 11.3162 12.0008 11.8791 12.0011C12.442 12.0014 12.9817 12.2253 13.3795 12.6235C13.7773 13.0217 14.0007 13.5617 14.0004 14.1246C14.0001 14.6875 13.7762 15.2272 13.378 15.625L8.36002 20.637C8.1224 20.8748 7.82869 21.0488 7.50602 21.143L4.63902 21.98C4.55298 22.0051 4.46176 22.0066 4.37493 21.9844C4.2881 21.9621 4.20885 21.9169 4.14547 21.8536C4.08209 21.7902 4.03691 21.7109 4.01467 21.6241C3.99242 21.5373 3.99393 21.446 4.01902 21.36L4.85502 18.491C4.9494 18.1687 5.12341 17.8753 5.36102 17.638L10.378 12.622Z" stroke="#058A53" stroke-width="2" stroke-linecap="round" stroke-linejoin="round"/>
</svg>
