<svg width="24" height="24" viewBox="0 0 24 24" fill="none" xmlns="http://www.w3.org/2000/svg">
<path fill-rule="evenodd" clip-rule="evenodd" d="M6.53501 3.25C6.24686 3.25009 5.96319 3.32134 5.70919 3.45741C5.45519 3.59348 5.23873 3.79017 5.07901 4.03L1.49001 9.412C1.27101 9.742 1.24501 10.164 1.42201 10.518C3.38719 14.4454 6.11651 17.941 9.45001 20.8L11.2 22.301C11.4229 22.4921 11.7069 22.5971 12.0005 22.5971C12.2941 22.5971 12.5781 22.4921 12.801 22.301L14.551 20.801C17.885 17.9418 20.6146 14.4458 22.58 10.518C22.757 10.164 22.73 9.742 22.511 9.412L18.92 4.03C18.7603 3.79049 18.5439 3.59409 18.2901 3.4582C18.0363 3.32232 17.7529 3.25115 17.465 3.251L6.53501 3.25ZM6.32701 4.861C6.34988 4.82682 6.38082 4.7988 6.4171 4.77944C6.45339 4.76008 6.49388 4.74997 6.53501 4.75H8.87501L6.96001 9.346C6.91746 9.45162 6.884 9.56068 6.86001 9.672C6.15575 9.61947 5.45233 9.55613 4.75001 9.482L3.34501 9.335L6.32701 4.861ZM3.28001 10.836C5.07531 14.1275 7.4438 17.072 10.274 19.531L7.14901 11.197C6.29641 11.1384 5.44494 11.0644 4.59501 10.975L3.28001 10.836ZM8.78601 11.29L12 19.864L15.215 11.29C13.0728 11.3871 10.9272 11.3871 8.78501 11.29M16.852 11.197L13.727 19.531C16.5572 17.072 18.9257 14.1275 20.721 10.836L19.406 10.975C18.556 11.0637 17.7047 11.1377 16.852 11.197ZM20.655 9.335L19.249 9.483C18.5467 9.55713 17.8433 9.62047 17.139 9.673C17.1154 9.56138 17.0823 9.45198 17.04 9.346L15.125 4.75H17.465C17.5061 4.74997 17.5466 4.76008 17.5829 4.77944C17.6192 4.7988 17.6501 4.82682 17.673 4.861L20.655 9.335ZM15.592 9.77C13.198 9.894 10.8033 9.894 8.40801 9.77L10.5 4.75H13.5L15.592 9.77Z" fill="#0068B9"/>
</svg>
