<svg width="24" height="24" viewBox="0 0 24 24" fill="none" xmlns="http://www.w3.org/2000/svg">
<path d="M8 10.167L12.123 6.043C13.248 4.919 13.811 4.356 14.431 3.903C15.7049 2.97403 17.1822 2.36274 18.74 2.12C19.499 2 20.293 2 21.885 2C21.968 2 22 2.038 22 2.115C22 3.705 22 4.501 21.881 5.26C21.638 6.81791 21.0263 8.29523 20.097 9.569C19.644 10.189 19.081 10.752 17.957 11.877L13.833 16" stroke="#0068B9" stroke-width="1.5" stroke-linecap="round" stroke-linejoin="round"/>
<path d="M10.341 8.098C8.638 8.098 6.498 7.738 4.904 8.398C3.737 8.88 2.878 10 2 10.878L5.306 12.296C6.182 12.671 5.646 13.776 5.501 14.502C5.34 15.31 5.349 15.34 5.931 15.922L8.078 18.068C8.66 18.651 8.69 18.66 9.498 18.498C10.223 18.353 11.329 17.818 11.704 18.694L13.121 22C13.999 21.122 15.119 20.263 15.602 19.096C16.262 17.502 15.902 15.362 15.902 13.659" stroke="#0068B9" stroke-width="1.5" stroke-linejoin="round"/>
<path d="M12 20L11 21M4 12L3 13" stroke="#0068B9" stroke-width="1.5" stroke-linecap="round" stroke-linejoin="round"/>
<path d="M15 4.08008C16.2 4.26008 17.46 4.74008 18.161 5.46008C19.058 6.25208 19.68 7.32008 19.92 9.00008" stroke="#0068B9" stroke-width="1.5" stroke-linecap="square"/>
<path d="M17.94 6.06006L16.5 7.50006" stroke="#0068B9" stroke-width="1.5" stroke-linecap="round"/>
</svg>
