<svg width="24" height="24" viewBox="0 0 24 24" fill="none" xmlns="http://www.w3.org/2000/svg">
<path d="M8.99999 12.5L6.49999 15L8.99999 17.5L11.5 15L8.99999 12.5ZM15 2.5C13.3595 2.50003 11.7798 3.12033 10.5776 4.23648C9.37535 5.35262 8.63964 6.88206 8.51799 8.518C7.27689 8.61026 6.08836 9.05689 5.09364 9.8048C4.09891 10.5527 3.33981 11.5705 2.90653 12.7371C2.47324 13.9038 2.384 15.1703 2.6494 16.3862C2.91479 17.6021 3.52367 18.7163 4.40369 19.5963C5.2837 20.4763 6.39785 21.0852 7.61375 21.3506C8.82965 21.616 10.0962 21.5267 11.2629 21.0935C12.4295 20.6602 13.4473 19.9011 14.1952 18.9064C14.9431 17.9116 15.3897 16.7231 15.482 15.482C17.1592 15.3569 18.7227 14.5866 19.8439 13.3328C20.965 12.0791 21.5565 10.4396 21.4941 8.75883C21.4317 7.07808 20.7202 5.48695 19.5092 4.3198C18.2982 3.15265 16.6819 2.50036 15 2.5ZM15.323 13.489C15.0429 12.3211 14.4451 11.2534 13.5958 10.4042C12.7466 9.55491 11.6789 8.95714 10.511 8.677C10.573 7.81679 10.8809 6.99252 11.3981 6.30232C11.9152 5.61213 12.6198 5.08508 13.428 4.78392C14.2361 4.48276 15.1138 4.42018 15.9565 4.60363C16.7992 4.78708 17.5715 5.20883 18.1813 5.81867C18.7912 6.42851 19.2129 7.20076 19.3964 8.04347C19.5798 8.88618 19.5172 9.76385 19.2161 10.572C18.9149 11.3802 18.3879 12.0848 17.6977 12.6019C17.0075 13.1191 16.1832 13.427 15.323 13.489ZM13.5 15C13.5 16.1935 13.0259 17.3381 12.182 18.182C11.3381 19.0259 10.1935 19.5 8.99999 19.5C7.80652 19.5 6.66193 19.0259 5.81801 18.182C4.9741 17.3381 4.49999 16.1935 4.49999 15C4.49999 13.8065 4.9741 12.6619 5.81801 11.818C6.66193 10.9741 7.80652 10.5 8.99999 10.5C10.1935 10.5 11.3381 10.9741 12.182 11.818C13.0259 12.6619 13.5 13.8065 13.5 15ZM2.99999 7C2.99999 5.93913 3.42142 4.92172 4.17156 4.17157C4.92171 3.42143 5.93913 3 6.99999 3H8.49999V5H6.99999C6.46956 5 5.96085 5.21071 5.58578 5.58579C5.21071 5.96086 4.99999 6.46957 4.99999 7V8.5H2.99999V7ZM19 17V15.5H21V17C21 18.0609 20.5786 19.0783 19.8284 19.8284C19.0783 20.5786 18.0609 21 17 21H15.5V19H17C17.5304 19 18.0391 18.7893 18.4142 18.4142C18.7893 18.0391 19 17.5304 19 17Z" fill="#0068B9"/>
</svg>
