<svg width="24" height="24" viewBox="0 0 24 24" fill="none" xmlns="http://www.w3.org/2000/svg">
<path d="M11.538 7.25292C11.5874 7.17506 11.6556 7.11094 11.7364 7.06651C11.8172 7.02208 11.9079 6.99878 12 6.99878C12.0922 6.99878 12.1829 7.02208 12.2637 7.06651C12.3445 7.11094 12.4127 7.17506 12.462 7.25292L13.084 8.23092C13.773 9.31065 14.6893 10.227 15.769 10.9159L16.747 11.5379C16.8249 11.5873 16.889 11.6555 16.9335 11.7363C16.9779 11.817 17.0012 11.9077 17.0012 11.9999C17.0012 12.0921 16.9779 12.1828 16.9335 12.2636C16.889 12.3443 16.8249 12.4126 16.747 12.4619L15.769 13.0839C14.6893 13.7729 13.773 14.6892 13.084 15.7689L12.462 16.7469C12.4127 16.8248 12.3445 16.8889 12.2637 16.9333C12.1829 16.9778 12.0922 17.0011 12 17.0011C11.9079 17.0011 11.8172 16.9778 11.7364 16.9333C11.6556 16.8889 11.5874 16.8248 11.538 16.7469L10.916 15.7689C10.2271 14.6892 9.31078 13.7729 8.23104 13.0839L7.25304 12.4619C7.17518 12.4126 7.11106 12.3443 7.06663 12.2636C7.0222 12.1828 6.9989 12.0921 6.9989 11.9999C6.9989 11.9077 7.0222 11.817 7.06663 11.7363C7.11106 11.6555 7.17518 11.5873 7.25304 11.5379L8.23104 10.9159C9.31078 10.227 10.2271 9.31065 10.916 8.23092L11.538 7.25292Z" stroke="#8C2903" stroke-width="1.5" stroke-linejoin="round"/>
<path d="M12 22C17.5228 22 22 17.5228 22 12C22 6.47715 17.5228 2 12 2C6.47715 2 2 6.47715 2 12C2 17.5228 6.47715 22 12 22Z" stroke="#8C2903" stroke-width="1.5" stroke-linejoin="round"/>
</svg>
