<svg width="24" height="24" viewBox="0 0 24 24" fill="none" xmlns="http://www.w3.org/2000/svg">
<path d="M8.4 3H5.6C5.17565 3 4.76869 3.16857 4.46863 3.46863C4.16857 3.76869 4 4.17565 4 4.6V9.4C4 9.61011 4.04139 9.81817 4.12179 10.0123C4.2022 10.2064 4.32006 10.3828 4.46863 10.5314C4.6172 10.6799 4.79359 10.7978 4.98771 10.8782C5.18183 10.9586 5.38988 11 5.6 11H8.4C8.61011 11 8.81817 10.9586 9.01229 10.8782C9.20641 10.7978 9.3828 10.6799 9.53137 10.5314C9.67994 10.3828 9.7978 10.2064 9.87821 10.0123C9.95861 9.81817 10 9.61011 10 9.4V4.6C10 4.17565 9.83143 3.76869 9.53137 3.46863C9.23131 3.16857 8.82435 3 8.4 3ZM8.4 15H5.6C5.17565 15 4.76869 15.1686 4.46863 15.4686C4.16857 15.7687 4 16.1757 4 16.6V19.4C4 19.8243 4.16857 20.2313 4.46863 20.5314C4.76869 20.8314 5.17565 21 5.6 21H8.4C8.82435 21 9.23131 20.8314 9.53137 20.5314C9.83143 20.2313 10 19.8243 10 19.4V16.6C10 16.1757 9.83143 15.7687 9.53137 15.4686C9.23131 15.1686 8.82435 15 8.4 15ZM18.4 3H15.6C15.1757 3 14.7687 3.16857 14.4686 3.46863C14.1686 3.76869 14 4.17565 14 4.6V7.4C14 7.82435 14.1686 8.23131 14.4686 8.53137C14.7687 8.83143 15.1757 9 15.6 9H18.4C18.8243 9 19.2313 8.83143 19.5314 8.53137C19.8314 8.23131 20 7.82435 20 7.4V4.6C20 4.17565 19.8314 3.76869 19.5314 3.46863C19.2313 3.16857 18.8243 3 18.4 3ZM18.4 13H15.6C15.1757 13 14.7687 13.1686 14.4686 13.4686C14.1686 13.7687 14 14.1757 14 14.6V19.4C14 19.8243 14.1686 20.2313 14.4686 20.5314C14.7687 20.8314 15.1757 21 15.6 21H18.4C18.8243 21 19.2313 20.8314 19.5314 20.5314C19.8314 20.2313 20 19.8243 20 19.4V14.6C20 14.1757 19.8314 13.7687 19.5314 13.4686C19.2313 13.1686 18.8243 13 18.4 13Z" stroke="#0068B9" stroke-width="1.5" stroke-miterlimit="10" stroke-linejoin="round"/>
</svg>
