<svg width="24" height="24" viewBox="0 0 24 24" fill="none" xmlns="http://www.w3.org/2000/svg">
<path d="M12 3.25C11.8011 3.25 11.6103 3.32902 11.4697 3.46967C11.329 3.61032 11.25 3.80109 11.25 4C11.25 4.19891 11.329 4.38968 11.4697 4.53033C11.6103 4.67098 11.8011 4.75 12 4.75C12.9521 4.75 13.8948 4.93753 14.7745 5.30187C15.6541 5.66622 16.4533 6.20025 17.1265 6.87348C17.7997 7.5467 18.3338 8.34593 18.6981 9.22554C19.0625 10.1052 19.25 11.0479 19.25 12C19.25 12.9521 19.0625 13.8948 18.6981 14.7745C18.3338 15.6541 17.7997 16.4533 17.1265 17.1265C16.4533 17.7997 15.6541 18.3338 14.7745 18.6981C13.8948 19.0625 12.9521 19.25 12 19.25C11.8011 19.25 11.6103 19.329 11.4697 19.4697C11.329 19.6103 11.25 19.8011 11.25 20C11.25 20.1989 11.329 20.3897 11.4697 20.5303C11.6103 20.671 11.8011 20.75 12 20.75C14.3206 20.75 16.5462 19.8281 18.1872 18.1872C19.8281 16.5462 20.75 14.3206 20.75 12C20.75 9.67936 19.8281 7.45376 18.1872 5.81282C16.5462 4.17187 14.3206 3.25 12 3.25Z" fill="#0068B9"/>
<path d="M10.47 9.53009C10.3375 9.38792 10.2654 9.19987 10.2688 9.00557C10.2723 8.81127 10.351 8.62588 10.4884 8.48847C10.6258 8.35106 10.8112 8.27234 11.0055 8.26892C11.1998 8.26549 11.3878 8.33761 11.53 8.47009L14.53 11.4701C14.6705 11.6107 14.7493 11.8013 14.7493 12.0001C14.7493 12.1988 14.6705 12.3895 14.53 12.5301L11.53 15.5301C11.4613 15.6038 11.3785 15.6629 11.2865 15.7039C11.1945 15.7449 11.0952 15.7669 10.9945 15.7687C10.8938 15.7705 10.7938 15.7519 10.7004 15.7142C10.607 15.6765 10.5222 15.6203 10.451 15.5491C10.3797 15.4779 10.3236 15.3931 10.2859 15.2997C10.2482 15.2063 10.2296 15.1063 10.2314 15.0056C10.2332 14.9049 10.2552 14.8056 10.2962 14.7136C10.3372 14.6216 10.3963 14.5388 10.47 14.4701L12.19 12.7501H4C3.80109 12.7501 3.61032 12.6711 3.46967 12.5304C3.32902 12.3898 3.25 12.199 3.25 12.0001C3.25 11.8012 3.32902 11.6104 3.46967 11.4698C3.61032 11.3291 3.80109 11.2501 4 11.2501H12.19L10.47 9.53009Z" fill="#0068B9"/>
</svg>
