<svg width="24" height="24" viewBox="0 0 24 24" fill="none" xmlns="http://www.w3.org/2000/svg">
<path d="M16 20.9999V18.9999C16 17.9391 15.5786 16.9216 14.8284 16.1715C14.0783 15.4214 13.0609 14.9999 12 14.9999H6C4.93913 14.9999 3.92172 15.4214 3.17157 16.1715C2.42143 16.9216 2 17.9391 2 18.9999V20.9999M16 3.12793C16.8578 3.3503 17.6174 3.85119 18.1597 4.55199C18.702 5.25279 18.9962 6.11382 18.9962 6.99993C18.9962 7.88604 18.702 8.74707 18.1597 9.44787C17.6174 10.1487 16.8578 10.6496 16 10.8719M22 20.9999V18.9999C21.9993 18.1137 21.7044 17.2527 21.1614 16.5522C20.6184 15.8518 19.8581 15.3515 19 15.1299" stroke="#0068B9" stroke-width="2" stroke-linecap="round" stroke-linejoin="round"/>
<path d="M9 11C11.2091 11 13 9.20914 13 7C13 4.79086 11.2091 3 9 3C6.79086 3 5 4.79086 5 7C5 9.20914 6.79086 11 9 11Z" stroke="#0068B9" stroke-width="2" stroke-linecap="round" stroke-linejoin="round"/>
</svg>
