<svg width="24" height="24" viewBox="0 0 24 24" fill="none" xmlns="http://www.w3.org/2000/svg">
<path d="M5.00006 20.9999H19.0001M11.5621 3.26592C11.6052 3.18753 11.6686 3.12216 11.7457 3.07663C11.8227 3.0311 11.9106 3.00708 12.0001 3.00708C12.0895 3.00708 12.1774 3.0311 12.2544 3.07663C12.3315 3.12216 12.3949 3.18753 12.4381 3.26592L15.3901 8.86992C15.4605 8.99969 15.5587 9.11225 15.6778 9.19954C15.7968 9.28683 15.9337 9.34668 16.0787 9.37478C16.2236 9.40289 16.3729 9.39856 16.516 9.3621C16.659 9.32564 16.7923 9.25797 16.9061 9.16392L21.1831 5.49992C21.2652 5.43315 21.3663 5.39414 21.472 5.38853C21.5777 5.38291 21.6824 5.41097 21.7712 5.46867C21.8599 5.52637 21.928 5.61073 21.9657 5.70961C22.0034 5.8085 22.0088 5.9168 21.9811 6.01892L19.1471 16.2649C19.0892 16.4746 18.9646 16.6597 18.7921 16.7921C18.6195 16.9246 18.4086 16.9972 18.1911 16.9989H5.81006C5.59239 16.9974 5.38117 16.9249 5.20845 16.7924C5.03573 16.66 4.91095 16.4748 4.85306 16.2649L2.02006 6.01992C1.99231 5.9178 1.99768 5.8095 2.0354 5.71061C2.07312 5.61173 2.14124 5.52737 2.22996 5.46967C2.31868 5.41197 2.42342 5.38391 2.5291 5.38953C2.63478 5.39514 2.73595 5.43415 2.81806 5.50092L7.09406 9.16492C7.20786 9.25897 7.34107 9.32664 7.48412 9.3631C7.62718 9.39956 7.77653 9.40389 7.92146 9.37578C8.06639 9.34768 8.20329 9.28783 8.32235 9.20054C8.44141 9.11325 8.53966 9.00069 8.61006 8.87092L11.5621 3.26592Z" stroke="#0068B9" stroke-width="2" stroke-linecap="round" stroke-linejoin="round"/>
</svg>
