<svg width="24" height="24" viewBox="0 0 24 24" fill="none" xmlns="http://www.w3.org/2000/svg">
<path d="M12.377 15.2861L12.4912 15.5713L12.7969 15.5977L13.8184 15.6885L12.8086 16.6064L12.8721 16.8896L13.1035 17.9297L12.2686 17.3994L12 17.2285L11.7314 17.3994L10.8955 17.9297L11.1279 16.8896L11.1914 16.6064L10.9766 16.4111L10.1807 15.6885L11.2031 15.5977L11.5088 15.5713L11.623 15.2861L12 14.3438L12.377 15.2861ZM19.5 6.5V7.5H4.5V6.5H19.5ZM17.5 2.5V3.5H6.5V2.5H17.5Z" fill="#0068B9" stroke="#0068B9"/>
<path d="M20 12V20H4V12H20ZM20 10H4C3.46957 10 2.96086 10.2107 2.58579 10.5858C2.21071 10.9609 2 11.4696 2 12V20C2 20.5304 2.21071 21.0391 2.58579 21.4142C2.96086 21.7893 3.46957 22 4 22H20C20.5304 22 21.0391 21.7893 21.4142 21.4142C21.7893 21.0391 22 20.5304 22 20V12C22 11.4696 21.7893 10.9609 21.4142 10.5858C21.0391 10.2107 20.5304 10 20 10Z" fill="#0068B9"/>
</svg>
