<svg width="28" height="28" viewBox="0 0 28 28" fill="none" xmlns="http://www.w3.org/2000/svg">
<path d="M14 25.9531C20.5275 25.9531 25.953 20.5391 25.953 14.0001C25.953 7.47262 20.5155 2.04712 13.988 2.04712C7.44949 2.04712 2.04749 7.47262 2.04749 14.0001C2.04749 20.5391 7.46099 25.9531 14 25.9531ZM14.0005 23.9611C8.46849 23.9611 4.04999 19.5311 4.04999 14.0001C4.04999 8.48012 8.45649 4.03912 13.988 4.03912C19.5075 4.03912 23.9485 8.48062 23.9605 14.0001C23.972 19.5316 19.519 23.9611 13.9995 23.9611M8.63299 17.6446C8.63299 17.8206 8.72649 18.0196 8.86699 18.1721L11.246 20.5391C11.5275 20.7851 11.797 20.9141 12.0545 20.9141C12.336 20.9141 12.5935 20.7971 12.863 20.5391L15.242 18.1601C15.3945 17.9961 15.4765 17.8201 15.4765 17.6446C15.4765 17.2581 15.1715 16.9416 14.7965 16.9416C14.5625 16.9416 14.3865 17.0116 14.2345 17.1761L13.6135 17.7971L12.7345 18.8046L12.793 16.8126V11.4926C12.793 9.60562 13.7185 8.56262 15.3595 8.56262C16.8945 8.56262 17.9255 9.61762 17.914 11.1876C17.9025 12.7226 16.906 13.7656 15.4765 13.7656C15.125 13.7656 14.949 13.6836 14.7265 13.6836C14.3515 13.6836 14.0705 13.9536 14.0705 14.3046C14.0705 14.5276 14.1525 14.7031 14.281 14.8321C14.5275 15.0666 14.961 15.1956 15.4295 15.1956C17.797 15.1956 19.3555 13.6016 19.3555 11.1876C19.3555 8.75012 17.7385 7.08612 15.3595 7.08612C12.8985 7.08612 11.3045 8.75012 11.3045 11.3636V16.8241L11.3745 18.8046L10.496 17.8086L9.87499 17.1876C9.80538 17.1074 9.71878 17.0437 9.62148 17.0012C9.52418 16.9586 9.41863 16.9383 9.31249 16.9416C8.93749 16.9416 8.63249 17.2581 8.63249 17.6446" fill="#058A53"/>
</svg>
