<svg width="20" height="20" viewBox="0 0 20 20" fill="none" xmlns="http://www.w3.org/2000/svg">
<path d="M11.67 8.537C11.5908 8.53646 11.5146 8.56729 11.458 8.62274C11.4014 8.6782 11.3691 8.75378 11.368 8.833V11.045C11.3691 11.1244 11.4015 11.2001 11.4583 11.2556C11.5151 11.3111 11.5916 11.3418 11.671 11.341H18.334C18.4134 11.3418 18.4899 11.3111 18.5467 11.2556C18.6035 11.2001 18.6359 11.1244 18.637 11.045V8.833C18.6359 8.75361 18.6035 8.67787 18.5467 8.62239C18.4899 8.5669 18.4134 8.5362 18.334 8.537H11.67ZM15.756 1.501C16.678 1.545 17.341 1.727 17.761 2.113C18.176 2.495 18.389 3.048 18.431 3.78V5.877C18.4289 6.05558 18.356 6.22603 18.2283 6.3509C18.1006 6.47578 17.9286 6.54487 17.75 6.543C17.6615 6.54406 17.5736 6.52767 17.4915 6.49477C17.4093 6.46187 17.3344 6.41311 17.2711 6.35126C17.2077 6.28942 17.1572 6.2157 17.1224 6.13433C17.0875 6.05295 17.069 5.96551 17.068 5.877L17.069 3.818C17.047 3.438 16.956 3.202 16.826 3.082C16.7 2.966 16.316 2.862 15.723 2.832H2.647C2.11 2.852 1.761 2.954 1.592 3.099C1.462 3.21 1.364 3.516 1.363 4.045L1.36 15.815C1.41 16.329 1.523 16.672 1.668 16.843C1.778 16.973 2.119 17.103 2.621 17.167H15.737C16.351 17.179 16.713 17.087 16.835 16.964C16.97 16.827 17.068 16.467 17.068 15.878V13.833C17.068 13.466 17.373 13.167 17.75 13.167C18.126 13.167 18.431 13.466 18.431 13.833V15.878C18.431 16.778 18.247 17.451 17.816 17.888C17.372 18.338 16.666 18.518 15.723 18.498L2.54 18.495C1.643 18.391 1 18.145 0.617 17.692C0.27 17.282 0.077 16.697 0 15.879V4.044C0.002 3.168 0.212 2.509 0.694 2.097C1.136 1.717 1.774 1.532 2.621 1.5L15.756 1.501ZM18.334 7.205C19.254 7.205 20 7.934 20 8.833V11.045C20 11.944 19.254 12.673 18.334 12.673H11.671C10.751 12.673 10.005 11.943 10.005 11.045V8.833C10.005 7.934 10.751 7.205 11.671 7.205H18.334ZM13.337 9.145C12.877 9.145 12.504 9.505 12.504 9.948C12.504 10.391 12.877 10.751 13.337 10.751C13.797 10.751 14.17 10.391 14.17 9.948C14.17 9.505 13.797 9.144 13.337 9.144" fill="#104AEA"/>
</svg>
