<svg width="24" height="24" viewBox="0 0 24 24" fill="none" xmlns="http://www.w3.org/2000/svg">
<path d="M3 22C2.45 22 1.97933 21.8043 1.588 21.413C1.19667 21.0217 1.00067 20.5507 1 20V6C1 5.45 1.196 4.97933 1.588 4.588C1.98 4.19667 2.45067 4.00067 3 4H10C10.2833 4 10.521 4.096 10.713 4.288C10.905 4.48 11.0007 4.71733 11 5C10.9993 5.28267 10.9033 5.52033 10.712 5.713C10.5207 5.90567 10.2833 6.00133 10 6H3V20H17V15C17 14.7167 17.096 14.4793 17.288 14.288C17.48 14.0967 17.7173 14.0007 18 14C18.2827 13.9993 18.5203 14.0953 18.713 14.288C18.9057 14.4807 19.0013 14.718 19 15V20C19 20.55 18.8043 21.021 18.413 21.413C18.0217 21.805 17.5507 22.0007 17 22H3ZM5.288 11.288C5.096 11.4793 5 11.7167 5 12V17C5 17.2833 5.096 17.521 5.288 17.713C5.48 17.905 5.71733 18.0007 6 18C6.28267 17.9993 6.52033 17.9033 6.713 17.712C6.90567 17.5207 7.00133 17.2833 7 17V12C7 11.7167 6.904 11.4793 6.712 11.288C6.52 11.0967 6.28267 11.0007 6 11C5.71733 10.9993 5.48 11.0953 5.288 11.288ZM9.288 8.288C9.096 8.47933 9 8.71667 9 9V17C9 17.2833 9.096 17.521 9.288 17.713C9.48 17.905 9.71733 18.0007 10 18C10.2827 17.9993 10.5203 17.9033 10.713 17.712C10.9057 17.5207 11.0013 17.2833 11 17V9C11 8.71667 10.904 8.47933 10.712 8.288C10.52 8.09667 10.2827 8.00067 10 8C9.71733 7.99933 9.48 8.09533 9.288 8.288ZM13.288 14.288C13.096 14.4793 13 14.7167 13 15V17C13 17.2833 13.096 17.521 13.288 17.713C13.48 17.905 13.7173 18.0007 14 18C14.2827 17.9993 14.5203 17.9033 14.713 17.712C14.9057 17.5207 15.0013 17.2833 15 17V15C15 14.7167 14.904 14.4793 14.712 14.288C14.52 14.0967 14.2827 14.0007 14 14C13.7173 13.9993 13.48 14.0953 13.288 14.288ZM18 12C17.5 12 17.0083 11.925 16.525 11.775C16.0417 11.625 15.5917 11.4083 15.175 11.125L14.8 11.475C14.6 11.6583 14.3623 11.75 14.087 11.75C13.8117 11.75 13.5827 11.6583 13.4 11.475C13.2173 11.2917 13.1257 11.0583 13.125 10.775C13.1243 10.4917 13.216 10.2583 13.4 10.075L13.8 9.675C13.5333 9.275 13.3333 8.85 13.2 8.4C13.0667 7.95 13 7.48333 13 7C13 5.61667 13.4877 4.43767 14.463 3.463C15.4383 2.48833 16.6173 2.00067 18 2H22C22.2833 2 22.521 2.096 22.713 2.288C22.905 2.48 23.0007 2.71733 23 3V7C23 8.38333 22.5123 9.56267 21.537 10.538C20.5617 11.5133 19.3827 12.0007 18 12ZM18 10C18.8333 10 19.5417 9.70833 20.125 9.125C20.7083 8.54167 21 7.83333 21 7V4H18C17.1667 4 16.4583 4.29167 15.875 4.875C15.2917 5.45833 15 6.16667 15 7C15 7.21667 15.021 7.425 15.063 7.625C15.105 7.825 15.1673 8.025 15.25 8.225L17.85 5.625C18.0333 5.44167 18.2667 5.35 18.55 5.35C18.8333 5.35 19.0667 5.44167 19.25 5.625C19.45 5.825 19.55 6.06267 19.55 6.338C19.55 6.61333 19.45 6.85067 19.25 7.05L16.65 9.65C16.8667 9.75 17.0877 9.83333 17.313 9.9C17.5383 9.96667 17.7673 10 18 10Z" fill="#693DD2"/>
</svg>
