<svg width="24" height="24" viewBox="0 0 24 24" fill="none" xmlns="http://www.w3.org/2000/svg">
<path d="M13 11.6001L16 14.6001C16.1833 14.7835 16.275 15.0168 16.275 15.3001C16.275 15.5835 16.1833 15.8168 16 16.0001C15.8167 16.1835 15.5833 16.2751 15.3 16.2751C15.0167 16.2751 14.7833 16.1835 14.6 16.0001L11.3 12.7001C11.2 12.6001 11.125 12.4878 11.075 12.3631C11.025 12.2385 11 12.1091 11 11.9751V8.00012C11 7.71679 11.096 7.47945 11.288 7.28812C11.48 7.09679 11.7173 7.00079 12 7.00012C12.2827 6.99945 12.5203 7.09545 12.713 7.28812C12.9057 7.48079 13.0013 7.71812 13 8.00012V11.6001ZM14.363 4.63812C14.121 4.39612 14 4.10012 14 3.75012C14 3.40012 14.121 3.10412 14.363 2.86212C14.605 2.62012 14.9007 2.49945 15.25 2.50012C15.5993 2.50079 15.8953 2.62179 16.138 2.86312C16.3807 3.10445 16.5013 3.40012 16.5 3.75012C16.4987 4.10012 16.3777 4.39612 16.137 4.63812C15.8963 4.88012 15.6007 5.00079 15.25 5.00012C14.8993 4.99945 14.6033 4.87845 14.362 4.63712M14.362 21.1371C14.1207 20.8965 14 20.6008 14 20.2501C14 19.8995 14.121 19.6035 14.363 19.3621C14.605 19.1208 14.9007 19.0001 15.25 19.0001C15.5993 19.0001 15.8953 19.1211 16.138 19.3631C16.3807 19.6051 16.5013 19.9008 16.5 20.2501C16.4987 20.5995 16.3777 20.8955 16.137 21.1381C15.8963 21.3808 15.6007 21.5015 15.25 21.5001C14.8993 21.4988 14.6033 21.3778 14.362 21.1371ZM18.362 8.13712C18.1207 7.89579 18 7.60012 18 7.25012C18 6.90012 18.121 6.60412 18.363 6.36212C18.605 6.12012 18.9007 5.99945 19.25 6.00012C19.5993 6.00079 19.8953 6.12179 20.138 6.36312C20.3807 6.60445 20.5013 6.90012 20.5 7.25012C20.4987 7.60012 20.3777 7.89612 20.137 8.13812C19.8963 8.38012 19.6007 8.50079 19.25 8.50012C18.8993 8.49945 18.6033 8.37845 18.362 8.13712ZM18.362 17.6371C18.1207 17.3965 18 17.1008 18 16.7501C18 16.3995 18.121 16.1035 18.363 15.8621C18.605 15.6208 18.9007 15.5001 19.25 15.5001C19.5993 15.5001 19.8953 15.6211 20.138 15.8631C20.3807 16.1051 20.5013 16.4008 20.5 16.7501C20.4987 17.0995 20.3777 17.3955 20.137 17.6381C19.8963 17.8808 19.6007 18.0015 19.25 18.0001C18.8993 17.9988 18.6033 17.8778 18.362 17.6371ZM19.862 12.8871C19.6207 12.6465 19.5 12.3508 19.5 12.0001C19.5 11.6495 19.621 11.3535 19.863 11.1121C20.105 10.8708 20.4007 10.7501 20.75 10.7501C21.0993 10.7501 21.3953 10.8711 21.638 11.1131C21.8807 11.3551 22.0013 11.6508 22 12.0001C21.9987 12.3495 21.8777 12.6455 21.637 12.8881C21.3963 13.1308 21.1007 13.2515 20.75 13.2501C20.3993 13.2488 20.1033 13.1278 19.862 12.8871ZM4.613 5.25012C6.355 3.36679 8.49267 2.30012 11.026 2.05012C11.2927 2.01679 11.522 2.09612 11.714 2.28812C11.906 2.48012 12.0013 2.71745 12 3.00012C12 3.26679 11.9127 3.50012 11.738 3.70012C11.5633 3.90012 11.3423 4.01679 11.075 4.05012C9.05833 4.28345 7.375 5.15012 6.025 6.65012C4.675 8.15012 4 9.93345 4 12.0001C4 14.0835 4.675 15.8711 6.025 17.3631C7.375 18.8551 9.05833 19.7175 11.075 19.9501C11.3417 19.9835 11.5627 20.1001 11.738 20.3001C11.9133 20.5001 12.0007 20.7335 12 21.0001C12 21.2835 11.904 21.5211 11.712 21.7131C11.52 21.9051 11.291 21.9841 11.025 21.9501C8.475 21.7001 6.33333 20.6335 4.6 18.7501C2.86667 16.8668 2 14.6168 2 12.0001C2 9.38345 2.871 7.13345 4.613 5.25012Z" fill="#0068B9"/>
</svg>
