<svg width="41" height="41" viewBox="0 0 41 41" fill="none" xmlns="http://www.w3.org/2000/svg">
<path d="M29.0415 15.3784C32.7571 15.3989 34.7696 15.5646 36.0816 16.8766C37.5832 18.3783 37.5832 20.7938 37.5832 25.625V27.3333C37.5832 32.1662 37.5832 34.5818 36.0816 36.0834C34.5816 37.5833 32.1643 37.5833 27.3332 37.5833H13.6665C8.83534 37.5833 6.41805 37.5833 4.91813 36.0834C3.4165 34.5801 3.4165 32.1662 3.4165 27.3333V25.625C3.4165 20.7938 3.4165 18.3783 4.91813 16.8766C6.23013 15.5646 8.24255 15.3989 11.9582 15.3784" stroke="black" stroke-width="1.5" stroke-linecap="round"/>
<path d="M20.5 25.625V3.41669M20.5 3.41669L25.625 9.39585M20.5 3.41669L15.375 9.39585" stroke="black" stroke-width="1.5" stroke-linecap="round" stroke-linejoin="round"/>
</svg>
